<svg width="45" height="45" viewBox="0 0 45 45" fill="none" xmlns="http://www.w3.org/2000/svg">
<path d="M39.0755 8.64376C38.1178 7.68564 36.9807 6.92559 35.7293 6.40704C34.4778 5.88848 33.1364 5.62158 31.7817 5.62158C30.4271 5.62158 29.0857 5.88848 27.8342 6.40704C26.5827 6.92559 25.4456 7.68564 24.488 8.64376L22.5005 10.6313L20.513 8.64376C18.5785 6.70933 15.9549 5.62258 13.2192 5.62258C10.4835 5.62258 7.85989 6.70933 5.92547 8.64376C3.99104 10.5782 2.9043 13.2018 2.9043 15.9375C2.9043 18.6732 3.99104 21.2968 5.92547 23.2313L22.5005 39.8063L39.0755 23.2313C40.0336 22.2736 40.7936 21.1365 41.3122 19.885C41.8307 18.6336 42.0976 17.2922 42.0976 15.9375C42.0976 14.5828 41.8307 13.2414 41.3122 11.99C40.7936 10.7385 40.0336 9.60142 39.0755 8.64376Z" stroke="#1E1E1E" stroke-width="4" stroke-linecap="round" stroke-linejoin="round"/>
</svg>
