<svg width="29" height="29" viewBox="0 0 29 29" fill="none" xmlns="http://www.w3.org/2000/svg">
<path d="M14.5 27.1875C7.49289 27.1875 1.8125 21.5071 1.8125 14.5C1.8125 7.49289 7.49289 1.8125 14.5 1.8125C21.5071 1.8125 27.1875 7.49289 27.1875 14.5C27.1875 21.5071 21.5071 27.1875 14.5 27.1875ZM14.5 29C22.5081 29 29 22.5081 29 14.5C29 6.49187 22.5081 0 14.5 0C6.49187 0 0 6.49187 0 14.5C0 22.5081 6.49187 29 14.5 29Z" fill="black"/>
<path d="M14.5 7.25C15.0005 7.25 15.4062 7.65574 15.4062 8.15625V13.5938H20.8438C21.3443 13.5938 21.75 13.9995 21.75 14.5C21.75 15.0005 21.3443 15.4062 20.8438 15.4062H15.4062V20.8438C15.4062 21.3443 15.0005 21.75 14.5 21.75C13.9995 21.75 13.5938 21.3443 13.5938 20.8438V15.4062H8.15625C7.65574 15.4062 7.25 15.0005 7.25 14.5C7.25 13.9995 7.65574 13.5938 8.15625 13.5938H13.5938V8.15625C13.5938 7.65574 13.9995 7.25 14.5 7.25Z" fill="black"/>
</svg>
