<svg width="30" height="30" viewBox="0 0 30 30" fill="none" xmlns="http://www.w3.org/2000/svg">
<path d="M26.0497 5.76234C25.4112 5.1236 24.6532 4.6169 23.8189 4.2712C22.9845 3.92549 22.0903 3.74756 21.1872 3.74756C20.2841 3.74756 19.3898 3.92549 18.5555 4.2712C17.7211 4.6169 16.9631 5.1236 16.3247 5.76234L14.9997 7.08734L13.6747 5.76234C12.385 4.47273 10.636 3.74823 8.81216 3.74823C6.98837 3.74823 5.23928 4.47273 3.94966 5.76234C2.66005 7.05196 1.93555 8.80105 1.93555 10.6248C1.93555 12.4486 2.66005 14.1977 3.94966 15.4873L14.9997 26.5373L26.0497 15.4873C26.6884 14.8489 27.1951 14.0909 27.5408 13.2565C27.8865 12.4222 28.0644 11.5279 28.0644 10.6248C28.0644 9.72173 27.8865 8.82747 27.5408 7.99315C27.1951 7.15882 26.6884 6.40079 26.0497 5.76234Z" stroke="#1E1E1E" stroke-width="2.5" stroke-linecap="round" stroke-linejoin="round"/>
</svg>
