<svg width="34" height="34" viewBox="0 0 34 34" fill="none" xmlns="http://www.w3.org/2000/svg">
<path d="M29.5237 6.53049C28.8001 5.80658 27.941 5.23232 26.9954 4.84053C26.0498 4.44873 25.0364 4.24707 24.0128 4.24707C22.9893 4.24707 21.9758 4.44873 21.0302 4.84053C20.0847 5.23232 19.2256 5.80658 18.502 6.53049L17.0003 8.03216L15.4987 6.53049C14.0371 5.06893 12.0548 4.24783 9.98783 4.24783C7.92087 4.24783 5.93856 5.06893 4.477 6.53049C3.01543 7.99205 2.19434 9.97436 2.19434 12.0413C2.19434 14.1083 3.01543 16.0906 4.477 17.5522L17.0003 30.0755L29.5237 17.5522C30.2476 16.8286 30.8218 15.9695 31.2136 15.0239C31.6054 14.0783 31.8071 13.0648 31.8071 12.0413C31.8071 11.0178 31.6054 10.0043 31.2136 9.05874C30.8218 8.11317 30.2476 7.25406 29.5237 6.53049Z" stroke="#1E1E1E" stroke-width="3" stroke-linecap="round" stroke-linejoin="round"/>
</svg>
