<svg width="32" height="32" viewBox="0 0 32 32" fill="none" xmlns="http://www.w3.org/2000/svg">
<path d="M16.0003 14.6667V22.6667M12.0003 18.6667H20.0003M29.3337 25.3333C29.3337 26.0406 29.0527 26.7189 28.5526 27.219C28.0525 27.719 27.3742 28 26.667 28H5.33366C4.62641 28 3.94814 27.719 3.44804 27.219C2.94794 26.7189 2.66699 26.0406 2.66699 25.3333V6.66667C2.66699 5.95942 2.94794 5.28115 3.44804 4.78105C3.94814 4.28095 4.62641 4 5.33366 4H12.0003L14.667 8H26.667C27.3742 8 28.0525 8.28095 28.5526 8.78105C29.0527 9.28115 29.3337 9.95942 29.3337 10.6667V25.3333Z" stroke="#1E1E1E" stroke-width="3" stroke-linecap="round" stroke-linejoin="round"/>
</svg>
